<svg xmlns="http://www.w3.org/2000/svg" xmlns:xlink="http://www.w3.org/1999/xlink" viewBox="0 0 673.27 785.14"><defs><style>.cls-1,.cls-5{stroke:#14a1c6;stroke-linecap:round;stroke-linejoin:round;stroke-width:4px;}.cls-1{fill:url(#linear-gradient);}.cls-2{opacity:0.7;}.cls-3{fill:#66c8fa;}.cls-4{fill:none;stroke:#66c8fa;stroke-width:0;}.cls-5{fill:#14a1c6;}</style><linearGradient id="linear-gradient" x1="188.57" y1="57.17" x2="504.19" y2="647.35" gradientUnits="userSpaceOnUse"><stop offset="0" stop-color="#14a1c6"/><stop offset="0.52" stop-color="#087caf"/><stop offset="0.86" stop-color="#14a1c6"/><stop offset="1" stop-color="#087caf"/></linearGradient></defs><g id="Layer_2" data-name="Layer 2"><g id="Layer_1-2" data-name="Layer 1"><path class="cls-1" d="M153,385.86c-29-46.72-25.09-92.74-23.76-105.84,5.91-58.26,40-95.16,53.42-109.19,38.07-40,81.67-52.89,102.17-58.69,87.46-24.76,202.59-6.32,242.09,58.78,4.07,6.69,15.82,26.67,12.76,51.8C536,252.85,512,282.3,480.6,289.35c-21.59,4.84-39.83-2.41-45.77-4.87-22.1-9.14-23-21.26-46.1-37.66-7.6-5.39-32.46-22.56-66.66-24.15-10.47-.48-40.23-1.86-66.91,18.4-4.71,3.58-37.73,29.35-37.18,73.07.44,35.61,22.84,58.46,27.72,63.21C235,336.23,242.2,299,265.27,281.7c14.94-11.21,32.5-11.05,39.13-10.87,57.25,1.55,69.17,65.2,127.12,73,21.93,2.94,53-1.79,76.08-19.57s26.74-39.82,52.18-47.82c15.34-4.83,31.93-2.43,41.64,2.29,32.8,15.93,42.61,85.33,20.37,170.4-15.19,34.56-58.22,119.5-154.35,176.09C312,716.7,148.91,656.83,126.66,648.23c20.74,9.95,186.63,86.15,351.65.86,27.56-14.24,131.31-70,175.05-196.77,5.52-16,49.54-150.64-25.05-279.31-85.38-147.28-279-205.3-425.2-151C113.15,55.48,12.63,142,3,247.45c-1.18,12.91-3.6,43.36,10.14,77.73,45.25,113.16,208.66,126,217.67,126.56C217.07,446.05,179.3,428.26,153,385.86Z"/><g class="cls-2"><path class="cls-3" d="M239.29,451.94s-1.92-1.07-5.56-3.29-9-5.62-15.65-10.51a206.11,206.11,0,0,1-23.17-19.71,175.67,175.67,0,0,1-25.77-32.1s-.22-.36-.6-1.1l-1.75-3.29c-.79-1.45-1.64-3.34-2.73-5.53-.53-1.11-1-2.34-1.62-3.64l-.9-2c-.28-.7-.57-1.44-.86-2.19a145.89,145.89,0,0,1-7.07-22.94,141,141,0,0,1-2.53-15.13,146.26,146.26,0,0,1-.86-17.45,155.83,155.83,0,0,1,6-40.73,173.11,173.11,0,0,1,8-22.35,165.09,165.09,0,0,1,12-22.77c18.17-30.2,50.61-57.9,93.15-76.08A268.24,268.24,0,0,1,303,139.33a282.57,282.57,0,0,1,36.69-7.4,245.18,245.18,0,0,1,38.91-2.14,214,214,0,0,1,39.74,4.61,155.28,155.28,0,0,1,38,13.16l4.41,2.36,2.21,1.18,2.1,1.34,4.23,2.64c1.41.86,2.77,1.87,4.18,2.87a157.62,157.62,0,0,1,16.16,13.43,115.62,115.62,0,0,1,13.54,15.25,75.72,75.72,0,0,1,5.16,8c.77,1.34,1.4,2.69,2.07,4s1.18,2.66,1.62,4a39.47,39.47,0,0,1,2.06,7.69,36.77,36.77,0,0,1,.38,7.29,39.7,39.7,0,0,1-4.35,15c-5.16,10.41-15,20.58-26.18,26.71a49,49,0,0,1-16.81,5.83,29.57,29.57,0,0,1-3.9.3c-.61,0-1.23,0-1.84,0s-1.15-.12-1.73-.15a25.78,25.78,0,0,1-6.57-1.66,38.76,38.76,0,0,1-7.39-4,106.08,106.08,0,0,1-8.86-6.89c-6.32-5.38-13.47-12.28-21.64-19.24-4.12-3.49-8.52-7-13.2-10.4a166.73,166.73,0,0,0-15.06-9.61,136.26,136.26,0,0,0-34.48-13.43l-4.52-1-4.54-.83c-1.49-.26-3.09-.56-4.4-.74l-2.12-.3-2.21-.3a154.47,154.47,0,0,0-18.24-1.22,141.63,141.63,0,0,0-18.75,1.05c-3.14.32-6.32.93-9.49,1.49-1.58.25-3.17.7-4.76,1.05s-3.17.73-4.75,1.18a116,116,0,0,0-36.35,17.33l-2.09,1.49-1.05.75-1,.82-3.94,3.29-2,1.66-1.83,1.77-3.64,3.58-.9.91-.84.94-1.68,1.91-3.33,3.83-3.06,4c-1,1.36-2.07,2.67-3,4.1a127.41,127.41,0,0,0-17,36.42A119,119,0,0,0,192.62,324c.12,1.74.23,3.49.4,5.23l.76,5.23a101.93,101.93,0,0,0,2.15,10.42c.37,1.75.95,3.43,1.48,5.12l1.67,5.07c.59,1.67,1.33,3.3,2,5l1,2.46c.35.82.69,1.64,1.11,2.42l2.45,4.74c.42.78.81,1.59,1.26,2.35l1.39,2.27,2.8,4.5,3.08,4.29,1.55,2.14c.53.69,1.1,1.35,1.65,2l3.36,4c1.16,1.29,2.35,2.54,3.54,3.8.6.63,1.18,1.27,1.79,1.88l1.87,1.78,2.71,2.52c.91.83,1.87,1.59,2.8,2.38L236.3,406l2.89,2.2.87.69c.58.47,1.45,1.15,2.65,2,2.37,1.74,5.94,4.32,10.92,7.31q3.74,2.28,8.57,4.81c3.3,1.7,6.85,3.32,10.27,4.82,7,3.17,15.33,6.58,24.9,10.16s20.48,7.19,32.42,10.7c5.95,1.76,12.15,3.48,18.36,5.26s12.42,3.59,17.77,5.6a107.12,107.12,0,0,1,32.43,20.07c10.36,9.23,19.5,21,24.61,34.54,0,0,.07.17.19.53l.54,1.55c.51,1.35,1.12,3.4,1.83,6.06.29,1.36.73,2.82,1,4.5.16.83.32,1.7.49,2.6s.25,1.86.38,2.84a95.2,95.2,0,0,1,.66,13.57,112.8,112.8,0,0,1-6.86,35.29A129.78,129.78,0,0,1,399.87,619c-1.23,1.43-2.39,2.94-3.69,4.31l-1.9,2.11-2,2c-1.3,1.39-2.72,2.62-4.07,3.95l-2.11,1.86c-.7.63-1.41,1.25-2.15,1.8a91.86,91.86,0,0,1-18.51,12c-13.07,6.44-28,9.48-42.35,11.42-7.17,1-14.22,1.65-20.86,2.27l-18.59,1.61c-11.23.95-20.11,1.53-25.85,2l-3.37.34c-2.24.22-5.59.52-10,.82a371,371,0,0,1-39.58.61c-8.72-.36-18.49-1.05-29.19-2.52a224.41,224.41,0,0,1-34.7-7.44,144.47,144.47,0,0,1-37.89-17.33A102.53,102.53,0,0,1,93.83,632a93.53,93.53,0,0,1-8.69-8.16,87.54,87.54,0,0,1-7.84-9.56c-1.24-1.7-2.36-3.5-3.5-5.31s-2.17-3.71-3.15-5.66A103,103,0,0,1,61.8,578a98.88,98.88,0,0,1-1.9-28.53,80.86,80.86,0,0,1,2.72-14.91,66.9,66.9,0,0,1,6.11-14.57A60.32,60.32,0,0,1,78.82,507,71.46,71.46,0,0,1,92.1,497,92,92,0,0,1,124,485.75a99.86,99.86,0,0,1,17.44-1.29,96.4,96.4,0,0,1,17.86,1.88A84.6,84.6,0,0,1,177,492a71.64,71.64,0,0,1,16.36,10,73.14,73.14,0,0,1,13.35,14.26,91.2,91.2,0,0,1,5.28,8.23c1.56,2.84,3.06,5.73,4.36,8.69A143.58,143.58,0,0,1,223,551.3c1.84,6.16,3.39,12.4,4.75,18.68,2.72,12.56,4.82,25.3,7,38.11s4.53,25.72,7.59,38.6a249.23,249.23,0,0,0,12.06,38.19,162.32,162.32,0,0,0,20.11,35.66,148.09,148.09,0,0,0,13.75,15.89c1.22,1.28,2.55,2.45,3.85,3.67l3.93,3.62,4.15,3.42,2.07,1.72c.71.56,1.45,1.07,2.17,1.61l4.36,3.23c1.48,1,3,2,4.53,3,3,2.08,6.21,3.84,9.36,5.74,1.6.91,3.25,1.74,4.88,2.62l2.45,1.3c.82.43,1.67.81,2.5,1.21l5.05,2.39,5.17,2.2a227.06,227.06,0,0,0,43.89,12.95s-1.07-.21-3.15-.7l-3.88-.88c-1.54-.35-3.31-.83-5.33-1.33a220.84,220.84,0,0,1-34.43-11.81,186.3,186.3,0,0,1-23.21-12.23,160.65,160.65,0,0,1-24.54-19A145.49,145.49,0,0,1,269.27,712a174.87,174.87,0,0,1-17.73-35.88,304.7,304.7,0,0,1-11.86-43.22c-3.22-15.44-5.78-31.82-9.05-49-1.63-8.59-3.49-17.38-5.89-26.31A155.61,155.61,0,0,0,215,530.61a83.92,83.92,0,0,0-17.8-24.86,73.79,73.79,0,0,0-27.33-16.09,92.74,92.74,0,0,0-31.6-4.55,98.23,98.23,0,0,0-31.91,6,81.17,81.17,0,0,0-15,7.29,66.16,66.16,0,0,0-13.24,10.63,57.7,57.7,0,0,0-10,14,67.58,67.58,0,0,0-5.64,16.18,90.26,90.26,0,0,0-.4,33.89,101.4,101.4,0,0,0,11.11,32.2,90.68,90.68,0,0,0,22.09,26.1A121.87,121.87,0,0,0,125,649s1.32,1,4.16,2.7a135.21,135.21,0,0,0,13.43,7.12c12.35,5.77,32.22,12.88,60.42,17.24a368.4,368.4,0,0,0,48.29,4.06q13.57.3,28.6-.28c10-.43,20.42-1,31.44-1.85a241.31,241.31,0,0,0,34.44-4.92l2.23-.5,2.23-.6,4.48-1.22c3-1,6-1.85,8.93-3.07l2.23-.87,1.11-.43,1.1-.5,4.4-2c1.46-.69,2.87-1.51,4.32-2.27l2.16-1.16,2.1-1.3a116.17,116.17,0,0,0,30.22-27,139.78,139.78,0,0,0,21.28-37.35s-.22,1.4-1.07,4.77a102.05,102.05,0,0,1-6.06,16.15,120.27,120.27,0,0,1-18.72,28.43c-1.21,1.39-2.54,2.76-3.88,4.2s-2.82,2.83-4.36,4.24l-4.87,4.27c-1.73,1.39-3.56,2.76-5.43,4.19s-4,2.67-6,4.07-4.36,2.53-6.65,3.85c-2.35,1.14-4.75,2.41-7.28,3.51s-5.14,2.24-7.86,3.14l-4.14,1.45L352,678.36c-2.89.92-5.85,1.56-8.89,2.34-6.06,1.35-12.42,2.57-19,3.47s-13.4,1.71-20.45,2.4-14.24,1.29-21.91,1.89c-15.33,1.15-32,1.82-50,1.41-9-.21-18.37-.69-28.07-1.58s-19.75-2.16-30.14-4a259.53,259.53,0,0,1-32.1-7.87A187,187,0,0,1,108,662.27a129.72,129.72,0,0,1-32.12-24.41,105.46,105.46,0,0,1-23.11-37.72,121.68,121.68,0,0,1-5.59-22.08,114.55,114.55,0,0,1-1.27-23.64,95.39,95.39,0,0,1,4.56-24.87,75.37,75.37,0,0,1,13.11-24.13,77.36,77.36,0,0,1,21.38-18,96.89,96.89,0,0,1,12.25-6A106.85,106.85,0,0,1,110,477.29a111.06,111.06,0,0,1,54.63-.22s-.42-.12-1.32-.33-2.27-.59-4.2-.94a105.42,105.42,0,0,0-18.69-2,114.68,114.68,0,0,0-15.17.79A108.5,108.5,0,0,0,106,478.69a97,97,0,0,0-22.84,10.39,80.67,80.67,0,0,0-12,9.24,69.18,69.18,0,0,0-11,13.11,81.72,81.72,0,0,0-12.3,34.95,112.61,112.61,0,0,0,2.66,40.43A117.27,117.27,0,0,0,57.86,608,104.25,104.25,0,0,0,70.7,628.79a113.57,113.57,0,0,0,18.12,18.09q5.12,4.05,10.68,7.66c3.72,2.37,7.56,4.62,11.52,6.71,15.89,8.32,33.55,14.23,52.35,18.38a363.77,363.77,0,0,0,59.82,7.65q15.76.79,32.32.56c11-.14,22.37-.64,33.79-1.39s23.17-1.46,35.45-2.87c6.13-.68,12.4-1.64,18.74-2.85a165.28,165.28,0,0,0,19.21-5l-3.49,1.47c-2.3,1-5.74,2.23-10.27,3.72-9,2.88-22.48,5.94-38.89,8.11-4.12.58-8.39,1.09-12.86,1.61s-9,1-13.93,1.49c-9.78,1-20.42,1.7-31.75,2s-23.38.17-36-.67a316.75,316.75,0,0,1-39.56-5.06l2.81.39c1.88.25,4.68.62,8.39,1,7.43.83,18.5,1.88,33,2.38s32.47.47,53.6-.8c5.27-.32,10.77-.72,16.35-1.16s11.39-.89,17.47-1.44c3.05-.28,6.14-.55,9.33-.91l4.81-.52,4.92-.62c6.62-.9,13.52-2,20.67-3.61a143.66,143.66,0,0,0,21.93-6.64A125.12,125.12,0,0,0,391,665.25l5.21-3.57c1.68-1.28,3.34-2.6,5-3.91l1.26-1,1.21-1,2.43-2.1c1.59-1.44,3.15-2.92,4.72-4.41A153.83,153.83,0,0,0,428,629.16a161.27,161.27,0,0,0,13.87-23.56,158.94,158.94,0,0,0,9.94-26.68,140.19,140.19,0,0,0,4.71-29.35c.18-2.53.15-5.09.18-7.65,0-1.29-.08-2.57-.12-3.86l-.07-1.94-.16-1.94a107.33,107.33,0,0,0-2.25-15.58,98.92,98.92,0,0,0-4.62-15.41c-.51-1.25-1-2.53-1.54-3.77l-1.74-3.7-.87-1.85-1-1.8-2-3.59a125.38,125.38,0,0,0-20.52-25.84l-3.07-2.83-1.54-1.42L415.6,457l-3.22-2.71L409,451.75l-1.68-1.28-1.74-1.22c-1.16-.81-2.31-1.63-3.49-2.43-2.4-1.51-4.76-3.11-7.27-4.5s-5-2.77-7.59-4.11-5.23-2.52-8-3.58A158.77,158.77,0,0,0,362.8,429c-11.05-3.21-22.17-6.06-33.31-9.48s-22.33-7.19-33.48-11.62c-2.77-1.14-5.57-2.25-8.35-3.43s-5.58-2.39-8.33-3.63a115.81,115.81,0,0,1-15.85-8.67,103.69,103.69,0,0,1-27-24.93,98.2,98.2,0,0,0,18.54,18.91,119,119,0,0,0,16.26,10.73,124.75,124.75,0,0,0,11.55,5.54l6,2.56c2.14.84.53.17-4.27-2-2.4-1.09-5.64-2.48-9.39-4.41a116.6,116.6,0,0,1-12.93-7.73,110.83,110.83,0,0,1-15-12.35,92.65,92.65,0,0,1-14.46-18.31A82.74,82.74,0,0,1,223,335.24a66,66,0,0,1-1.23-7.16l-.26-1.83-.12-1.86-.24-3.76c-.12-1.26,0-2.54,0-3.82s0-2.57,0-3.86.22-2.6.34-3.91l.17-2,.09-1,.16-1A99,99,0,0,1,232,273.48c1.45-2.51,2.73-5.14,4.43-7.55.81-1.22,1.59-2.49,2.45-3.7l2.7-3.55c.47-.59.88-1.21,1.39-1.77l1.49-1.69c1-1.11,2-2.29,3-3.37a90.14,90.14,0,0,1,6.73-6.21,82.26,82.26,0,0,1,15.57-10.3l4.3-2.05a22.31,22.31,0,0,1,2.21-.91l2.24-.87,2.25-.86,2.31-.71,2.33-.71a23.12,23.12,0,0,1,2.34-.65A114.41,114.41,0,0,1,327.51,226c3.38.37,6.83.8,10.21,1.44,1.68.33,3.39.57,5.07,1l5,1.21a106.22,106.22,0,0,1,19.49,7.32,117.86,117.86,0,0,1,18.05,11c5.75,4.21,11.23,8.88,16.66,13.74s10.8,9.91,16.52,14.74c2.89,2.39,5.82,4.78,9,7,1.53,1.12,3.19,2.11,4.8,3.16l2.51,1.43,1.27.71,1.31.65a56.63,56.63,0,0,0,10.94,4.17l2.87.69c1,.23,1.94.33,2.91.5a55.09,55.09,0,0,0,5.86.58A66.84,66.84,0,0,0,483,292a92.59,92.59,0,0,0,38.41-24.61,99.55,99.55,0,0,0,7.36-8.79,90.38,90.38,0,0,0,6.18-9.66,75.22,75.22,0,0,0,4.8-10.44,66.78,66.78,0,0,0,3.12-11.1c.22-.94.31-1.91.47-2.86l.21-1.43.12-1.45.24-2.88,0-2.9,0-1.44c0-.48-.05-1-.08-1.44l-.17-2.88-.36-2.86-.18-1.42-.27-1.41-.55-2.81-.71-2.76-.36-1.37-.44-1.35-.87-2.7a88,88,0,0,0-4.5-10.26c-6.87-13.2-16.41-24.28-26.64-33.86a185.1,185.1,0,0,0-16-13.33,171.12,171.12,0,0,0-17.17-11.14c-3-1.55-5.93-3.18-8.92-4.65l-9-4-9.12-3.44c-1.5-.61-3.06-1-4.58-1.51l-4.56-1.41a232.93,232.93,0,0,0-35.88-7.43c-2.92-.33-5.81-.58-8.68-.88-1.43-.12-2.85-.32-4.27-.38l-4.23-.22-4.19-.23c-1.39-.08-2.77-.16-4.15-.15l-8.13-.09-2,0-2,.06-3.93.12c-2.61.11-5.19.1-7.72.29l-7.49.53c-1.23.1-2.45.16-3.66.28l-3.59.39-7,.77c-2.3.25-4.54.65-6.75,1l-6.52,1L313,105.87,307,107l-5.69,1.25-5.45,1.17c-1.77.37-3.46.86-5.14,1.26-3.32.86-6.51,1.56-9.46,2.38s-5.7,1.58-8.28,2.26l-1.18.44c-.78.28-1.92.75-3.39,1.39L263,119.43l-3.45,1.48c-1.22.54-2.49,1.18-3.85,1.82a250.15,250.15,0,0,0-43,25.42l-6.37,4.77c-2.11,1.69-4.21,3.5-6.38,5.29l-3.26,2.73c-1.07.94-2.11,1.95-3.18,2.94-2.12,2-4.31,4-6.46,6.08a213.57,213.57,0,0,0-24.27,29.13l-5.42,8.41c-1.73,2.89-3.31,5.9-5,8.88a177.83,177.83,0,0,0-8.76,18.51,190.92,190.92,0,0,0-11.57,40.33,170,170,0,0,0-1.9,42.24,152.66,152.66,0,0,0,3.1,20.63,156,156,0,0,0,23,53.79A159,159,0,0,0,178.36,418a164.5,164.5,0,0,0,22.47,18,147.14,147.14,0,0,0,19.35,10.92,84.76,84.76,0,0,0,13.68,5.17c3.38.88,5.47,1,6,.42"/><path class="cls-4" d="M392,638.76l-.76.81c-.51.54-1.26,1.35-2.33,2.33s-2.37,2.27-4,3.72l-2.7,2.24c-1,.8-2,1.69-3.19,2.49L375.28,653,371,655.74a103.43,103.43,0,0,1-10.54,5.46,126.29,126.29,0,0,1-13.19,5c-2.43.74-5,1.48-7.6,2.18s-5.38,1.38-8.24,1.94c-11.39,2.46-24.39,4.27-38.63,6s-29.82,3.39-46.74,4.12a406.05,406.05,0,0,1-54.59-1.13,291.57,291.57,0,0,1-30-4.28A217.81,217.81,0,0,1,130,666.48a154.74,154.74,0,0,1-31.72-15.36,112,112,0,0,1-28.55-25.85,103.82,103.82,0,0,1-10.8-17.41,115,115,0,0,1-7.29-19.35,117.79,117.79,0,0,1-3.82-20.73,105.08,105.08,0,0,1-.46-10.85,95.68,95.68,0,0,1,.69-11.13,86.26,86.26,0,0,1,5.79-22.71,72.42,72.42,0,0,1,13.4-21.23,79.16,79.16,0,0,1,9.29-8.6,91,91,0,0,1,10.3-6.88,99.91,99.91,0,0,1,22.38-9.27,111.65,111.65,0,0,1,48.32-2.67,96.62,96.62,0,0,1,24.53,7.45c2,.89,4,2,5.94,3,1,.55,1.94,1.14,2.9,1.71s1.92,1.19,2.85,1.83a78.19,78.19,0,0,1,10.67,8.48c1.69,1.54,3.23,3.21,4.79,4.86s3,3.41,4.31,5.2a93.44,93.44,0,0,1,7.34,11A130.21,130.21,0,0,1,231,541.1c5.16,15.5,8,30.82,10.62,45.85s4.73,29.87,7.53,44.45A294.9,294.9,0,0,0,260.28,674a185.7,185.7,0,0,0,8.47,20.1,154,154,0,0,0,11.11,18.79,142.55,142.55,0,0,0,30.78,32c3,2.39,6.17,4.45,9.31,6.65l4.91,3c1.62,1.05,3.32,2,5,2.91,3.36,2,6.89,3.63,10.4,5.4l5.39,2.42c1.78.85,3.66,1.51,5.49,2.28A219.34,219.34,0,0,0,374,775.34c7.83,2.16,15.84,3.91,24,5.36"/><path class="cls-4" d="M376.53,438.15l1.4.48c.94.33,2.34.79,4.12,1.54l3,1.23,3.59,1.63c1.32.58,2.69,1.28,4.16,2.05s3.05,1.55,4.67,2.51a137.43,137.43,0,0,1,22.6,16,124.45,124.45,0,0,1,12.45,12.63c.52.61,1.06,1.2,1.56,1.83l1.5,1.92,1.53,2,.77,1,.72,1q1.44,2.12,2.93,4.27c.9,1.51,1.82,3,2.75,4.58a104.64,104.64,0,0,1,13.47,45.9,126.65,126.65,0,0,1,.18,13.39c-.24,4.54-.6,9.17-1.31,13.82s-1.63,9.35-2.74,14.09c-.64,2.34-1.2,4.74-2,7.09-.36,1.18-.73,2.37-1.09,3.56s-.82,2.36-1.22,3.55a157.65,157.65,0,0,1-33,54.75,131.92,131.92,0,0,1-27.61,22.66,128.64,128.64,0,0,1-16.74,8.58,149.07,149.07,0,0,1-17.91,6c-6.08,1.69-12.16,2.88-18.26,4S324,692.09,318,692.72l-4.52.49-4.49.42c-3,.29-6,.52-9,.77-6,.48-11.83,1-18,1.37a510.17,510.17,0,0,1-76.49-.13,350.64,350.64,0,0,1-40.14-5.57,245.26,245.26,0,0,1-41-11.85,180.73,180.73,0,0,1-20.4-9.5,144.69,144.69,0,0,1-19.7-12.82A123,123,0,0,1,66.43,639,111.68,111.68,0,0,1,52,618.08a119.34,119.34,0,0,1-9.41-23.36,129.64,129.64,0,0,1-4.55-24.46,116.53,116.53,0,0,1,.54-25.67,102.83,102.83,0,0,1,2.68-13.19A91.43,91.43,0,0,1,46,518.22a84.38,84.38,0,0,1,7.1-12.71,80.78,80.78,0,0,1,9.5-11.41,82.54,82.54,0,0,1,11-9.22,94.44,94.44,0,0,1,11.74-7.12,109.89,109.89,0,0,1,24.58-9,120.65,120.65,0,0,1,25.23-3.21,116.71,116.71,0,0,1,25.41,2.22,105.6,105.6,0,0,1,12.61,3.33,94.83,94.83,0,0,1,12.33,5c2,.93,4,2.1,6,3.17s3.92,2.34,5.79,3.69a87.13,87.13,0,0,1,10.7,8.64,92.2,92.2,0,0,1,9.11,10,103.8,103.8,0,0,1,7.33,10.8,126.27,126.27,0,0,1,10.08,22.08,192.37,192.37,0,0,1,6.05,21.42c3.15,14,5,27.31,6.83,40.21"/></g><path class="cls-5" d="M247.88,625.18c35.58,29.38,85.17,23.73,121.73,19.57,100.95-11.51,165.38-76.89,168-73.34,2.42,3.32-49.46,66.9-139.05,99.57-14,5.09-142,49.59-255-15.36-22.06-12.68-84.07-48.28-82-97.61,1-22.4,14.88-44.08,33.29-56.15,24.69-16.19,58.06-15.51,81.3-2.77C223.71,525.18,201.24,586.67,247.88,625.18Z"/></g></g></svg>